<svg xmlns="http://www.w3.org/2000/svg" xmlns:xlink="http://www.w3.org/1999/xlink" viewBox="0 0 1873.61 444.53"><defs><style>      .cls-1 {        fill: #c3c0cc;      }      .cls-2 {        fill: #aba9b5;      }      .cls-3 {        mix-blend-mode: multiply;        opacity: .25;      }      .cls-4 {        fill: #f8912e;        fill-rule: evenodd;      }      .cls-5 {        isolation: isolate;      }      .cls-6 {        fill: #ff7502;      }      .cls-7 {        fill: url(#linear-gradient);      }    </style><linearGradient id="linear-gradient" x1="1171.42" y1="135.57" x2="1171.42" y2="318.42" gradientUnits="userSpaceOnUse"><stop offset="0" stop-color="#fff"></stop><stop offset="1" stop-color="#000"></stop></linearGradient></defs><g class="cls-5"><g id="Layer_2" data-name="Layer 2"><g id="Layer_1-2" data-name="Layer 1"><g><path class="cls-2" d="M291.68,144.25l46.57-46.57c2.33-2.33,6.09-2.36,8.46-.06.03.03.06.06.09.08,2.41,2.34,2.44,6.2.06,8.58l-46.57,46.57c-2.35,2.35-6.16,2.35-8.51,0l-.09-.09c-2.35-2.35-2.35-6.16,0-8.51ZM152.85,144.25l-46.57-46.57c-2.33-2.33-6.09-2.36-8.46-.06-.03.03-.06.06-.09.08-2.41,2.34-2.44,6.2-.06,8.58l46.57,46.57c2.35,2.35,6.16,2.35,8.51,0l.09-.09c2.35-2.35,2.35-6.16,0-8.51ZM291.68,300.28l50.34,50.34c2.38,2.38,6.24,2.35,8.58-.06.03-.03.06-.06.08-.09,2.29-2.36,2.26-6.13-.06-8.46l-50.34-50.34c-2.35-2.35-6.16-2.35-8.51,0l-.09.09c-2.35,2.35-2.35,6.16,0,8.51ZM144.25,291.68l-50.34,50.34c-2.33,2.33-2.36,6.09-.06,8.46.03.03.06.06.08.09,2.34,2.41,6.2,2.44,8.58.06l50.34-50.34c2.35-2.35,2.35-6.16,0-8.51l-.09-.09c-2.35-2.35-6.16-2.35-8.51,0Z"></path><g><rect class="cls-2" x="216.18" y="320.49" width="12.16" height="124.03" rx="6.08" ry="6.08"></rect><rect class="cls-2" x="216.18" y="0" width="12.16" height="124.03" rx="6.08" ry="6.08"></rect></g><path class="cls-2" d="M117.95,232.11H6.08c-3.36,0-6.08-2.72-6.08-6.08h0c0-3.36,2.72-6.08,6.08-6.08h111.87c3.36,0,6.08,2.72,6.08,6.08h0c0,3.36-2.72,6.08-6.08,6.08ZM438.45,219.95h-111.87c-3.36,0-6.08,2.72-6.08,6.08h0c0,3.36,2.72,6.08,6.08,6.08h111.87c3.36,0,6.08-2.72,6.08-6.08h0c0-3.36-2.72-6.08-6.08-6.08Z"></path></g><g><g><g><path class="cls-1" d="M594.97,314.66v-70.88h-86.16v70.88h-33.06v-175.33h33.06v73.89h86.16v-73.89h32.81v175.33h-32.81Z"></path><path class="cls-1" d="M811.13,227.75c-.5,45.34-28.3,90.67-89.92,90.67s-90.17-44.33-90.17-90.42,29.56-92.42,90.17-92.42,90.42,46.34,89.92,92.17ZM663.6,228.5c.75,28.8,16.28,59.61,57.61,59.61s56.86-31.06,57.36-59.86c.5-29.56-16.03-62.62-57.36-62.62s-58.36,33.31-57.61,62.87Z"></path><path class="cls-1" d="M939.88,281.35h-91.67l-15.03,33.06h-35.82l78.65-175.33h36.07l78.65,175.33h-36.07l-14.78-33.06ZM894.04,175.9l-32.56,74.64h65.12l-32.56-74.64Z"></path></g><g><path class="cls-1" d="M1121.68,314.41v-79.65h-111.71v79.65h-13.53v-175.33h13.53v83.41h111.71v-83.41h13.53v175.33h-13.53Z"></path><path class="cls-1" d="M1287.99,139.08v108.96c0,91.67-134.25,91.92-134.25,0v-108.96h13.27v108.96c0,75.39,107.7,75.14,107.7,0v-108.96h13.27Z"></path><path class="cls-1" d="M1310.79,139.08l117.97,145.02v-145.02h13.27v175.33h-5.26l-118.22-144.77v144.77h-13.53v-175.33h5.76Z"></path><path class="cls-1" d="M1510.92,151.35h-63.37v-12.02h140.26v12.02h-63.37v163.06h-13.53v-163.06Z"></path><path class="cls-1" d="M1606.6,219.98h102.69v12.27h-102.69v69.13h110.71v13.02h-123.98v-175.33h120.98v12.77h-107.7v68.13Z"></path><path class="cls-1" d="M1867.1,314.41h-17.78l-60.61-66.38h-47.84v66.38h-13.53v-175.33h77.15c38.07,0,57.36,27.3,57.61,54.6.25,28.55-18.54,53.6-56.86,53.6l61.87,67.13ZM1740.86,235.26h62.12c30.56,0,44.08-17.28,44.33-41.83.25-20.54-13.78-41.83-42.83-41.83h-63.62v83.66Z"></path></g></g><g class="cls-3"><g><path class="cls-7" d="M594.97,314.66v-70.88h-86.16v70.88h-33.06v-175.33h33.06v73.89h86.16v-73.89h32.81v175.33h-32.81Z"></path><path class="cls-7" d="M811.13,227.75c-.5,45.34-28.3,90.67-89.92,90.67s-90.17-44.33-90.17-90.42,29.56-92.42,90.17-92.42,90.42,46.34,89.92,92.17ZM663.6,228.5c.75,28.8,16.28,59.61,57.61,59.61s56.86-31.06,57.36-59.86c.5-29.56-16.03-62.62-57.36-62.62s-58.36,33.31-57.61,62.87Z"></path><path class="cls-7" d="M939.88,281.35h-91.67l-15.03,33.06h-35.82l78.65-175.33h36.07l78.65,175.33h-36.07l-14.78-33.06ZM894.04,175.9l-32.56,74.64h65.12l-32.56-74.64Z"></path></g><g><path class="cls-7" d="M1121.68,314.41v-79.65h-111.71v79.65h-13.53v-175.33h13.53v83.41h111.71v-83.41h13.53v175.33h-13.53Z"></path><path class="cls-7" d="M1287.99,139.08v108.96c0,91.67-134.25,91.92-134.25,0v-108.96h13.27v108.96c0,75.39,107.7,75.14,107.7,0v-108.96h13.27Z"></path><path class="cls-7" d="M1310.79,139.08l117.97,145.02v-145.02h13.27v175.33h-5.26l-118.22-144.77v144.77h-13.53v-175.33h5.76Z"></path><path class="cls-7" d="M1510.92,151.35h-63.37v-12.02h140.26v12.02h-63.37v163.06h-13.53v-163.06Z"></path><path class="cls-7" d="M1606.6,219.98h102.69v12.27h-102.69v69.13h110.71v13.02h-123.98v-175.33h120.98v12.77h-107.7v68.13Z"></path><path class="cls-7" d="M1867.1,314.41h-17.78l-60.61-66.38h-47.84v66.38h-13.53v-175.33h77.15c38.07,0,57.36,27.3,57.61,54.6.25,28.55-18.54,53.6-56.86,53.6l61.87,67.13ZM1740.86,235.26h62.12c30.56,0,44.08-17.28,44.33-41.83.25-20.54-13.78-41.83-42.83-41.83h-63.62v83.66Z"></path></g></g></g><g id="SVGRepo_iconCarrier" data-name="SVGRepo iconCarrier"><g><path class="cls-4" d="M253.21,278.82c-12.06,0-21.86-9.81-21.86-21.86v-20.52c0-2.4-1.68-3.68-2.9-3.68h-12.38c-1.21,0-2.9,1.28-2.9,3.68v20.52c0,12.06-9.81,21.86-21.86,21.86h-12.38c-12.06,0-21.86-10.16-21.86-22.64v-49.56c0-8.97,3.87-17.32,10.61-22.89l33.34-27.56c6.02-4.98,13.56-7.72,21.24-7.72s15.22,2.74,21.24,7.72l33.34,27.56c6.74,5.57,10.61,13.92,10.61,22.89v49.56c0,12.49-9.81,22.64-21.86,22.64h-12.38Z"></path><path class="cls-2" d="M222.26,151.74c6.77,0,13.53,2.32,19.14,6.96l33.34,27.56c6.01,4.97,9.41,12.5,9.41,20.35v49.56c0,10.32-7.96,19.35-18.57,19.35h-12.38c-10.26,0-18.57-8.31-18.57-18.57v-20.52c0-4.21-3.12-6.97-6.19-6.97h-12.38c-3.07,0-6.19,2.76-6.19,6.97v20.52c0,10.26-8.31,18.57-18.57,18.57h-12.38c-10.61,0-18.57-9.03-18.57-19.35v-49.56c0-7.86,3.41-15.39,9.41-20.35l33.34-27.56c5.61-4.64,12.38-6.96,19.14-6.96M222.26,145.15c-8.44,0-16.73,3.01-23.34,8.47l-33.34,27.56c-7.5,6.2-11.8,15.47-11.8,25.43v49.56c0,14.3,11.29,25.94,25.16,25.94h12.38c13.87,0,25.16-11.29,25.16-25.16v-20.52c0-.18.02-.3.05-.38h11.48c.03.08.05.2.05.38v20.52c0,13.87,11.29,25.16,25.16,25.16h12.38c13.87,0,25.16-11.64,25.16-25.94v-49.56c0-9.96-4.3-19.23-11.8-25.43l-33.34-27.56c-6.61-5.46-14.9-8.47-23.34-8.47h0Z"></path></g></g><path class="cls-6" d="M222.26,408.85c-100.81,0-182.82-82.01-182.82-182.82S121.46,43.21,222.26,43.21s182.82,82.01,182.82,182.82-82.01,182.82-182.82,182.82ZM222.26,93.01c-73.35,0-133.02,59.67-133.02,133.02s59.67,133.02,133.02,133.02,133.02-59.67,133.02-133.02-59.67-133.02-133.02-133.02Z"></path><path class="cls-2" d="M222.26,48.02c98.31,0,178.01,79.7,178.01,178.01s-79.7,178.01-178.01,178.01S44.26,324.34,44.26,226.03,123.95,48.02,222.26,48.02M222.26,363.87c76.12,0,137.84-61.71,137.84-137.84s-61.71-137.84-137.84-137.84-137.83,61.71-137.83,137.84,61.71,137.84,137.83,137.84M222.26,38.39c-25.33,0-49.9,4.96-73.04,14.75-22.34,9.45-42.41,22.98-59.64,40.21-17.23,17.23-30.76,37.29-40.21,59.64-9.79,23.14-14.75,47.71-14.75,73.04s4.96,49.9,14.75,73.04c9.45,22.34,22.98,42.41,40.21,59.64,17.23,17.23,37.29,30.76,59.64,40.21,23.14,9.79,47.71,14.75,73.04,14.75s49.9-4.96,73.04-14.75c22.35-9.45,42.41-22.98,59.64-40.21,17.23-17.23,30.76-37.29,40.21-59.64,9.79-23.14,14.75-47.71,14.75-73.04s-4.96-49.9-14.75-73.04c-9.45-22.34-22.98-42.41-40.21-59.64-17.23-17.23-37.29-30.76-59.64-40.21-23.14-9.79-47.71-14.75-73.04-14.75h0ZM222.26,354.24c-70.69,0-128.21-57.51-128.21-128.21s57.51-128.21,128.21-128.21,128.21,57.51,128.21,128.21-57.51,128.21-128.21,128.21h0Z"></path></g></g></g></svg>