<?xml version="1.0" encoding="UTF-8"?>
<svg id="Layer_2" data-name="Layer 2" xmlns="http://www.w3.org/2000/svg" xmlns:xlink="http://www.w3.org/1999/xlink" viewBox="0 0 992.54 706.75">
  <defs>
    <style>
      .cls-1 {
        fill: #fff;
      }

      .cls-2 {
        fill: none;
      }

      .cls-3 {
        fill: #303030;
      }

      .cls-4 {
        fill: #c49c1c;
      }

      .cls-5 {
        clip-path: url(#clippath);
      }
    </style>
    <clipPath id="clippath">
      <path class="cls-2" d="M28,180.55v361.49h936.54V180.55H28ZM189.53,181.55h226.33l54.07,104.57H189.53v-104.57ZM574.45,491.45l-4.03,7.05h-155.22l-4.03-7.05-32.36-56.58h228l-32.36,56.58ZM796.08,286.12h-280.4l54.07-104.57h226.33v104.57Z"/>
    </clipPath>
  </defs>
  <g id="Layer_1-2" data-name="Layer 1">
    <g>
      <path d="M597.96,703.25v-136.7h-210.96v136.7h-244.96v-136.7h-29.4c-26.42,0-51.8-7.37-71.45-20.75-23.95-16.3-37.69-40.41-37.69-66.15v-236.7c0-25.73,13.74-49.84,37.69-66.15,19.66-13.38,45.03-20.75,71.45-20.75h28.05V3.5h212.92l78.89,152.55h120.6L631.99,3.5h212.92v152.55h34.99c26.42,0,51.8,7.37,71.45,20.75,23.95,16.3,37.69,40.42,37.69,66.15v85.36h-166.47v64.37h166.47v86.97c0,25.73-13.74,49.84-37.69,66.15-19.66,13.38-45.03,20.75-71.45,20.75h-34.99v136.7h-246.95Z"/>
      <path class="cls-1" d="M841.41,7v152.55h38.49c25.73,0,50.4,7.15,69.48,20.14,22.98,15.64,36.16,38.7,36.16,63.25v81.86h-166.47v71.37h166.47v83.47c0,24.56-13.18,47.61-36.16,63.25-19.08,12.99-43.76,20.14-69.48,20.14h-38.49v136.7h-239.95v-136.7h-217.96v136.7h-237.96v-136.7h-32.9c-25.73,0-50.4-7.15-69.48-20.14-22.98-15.64-36.16-38.7-36.16-63.25v-236.7c0-24.56,13.18-47.61,36.16-63.25,19.08-12.99,43.76-20.14,69.48-20.14h31.55V7h207.29l78.89,152.55h124.86L634.12,7h207.29M848.41,0h-218.55l-1.96,3.78-76.93,148.77h-116.34L357.7,3.78l-1.96-3.78h-218.55v152.55h-24.55c-27.12,0-53.19,7.58-73.42,21.35C14.3,190.88,0,216.04,0,242.95v236.7c0,26.91,14.3,52.07,39.22,69.04,20.23,13.77,46.31,21.35,73.42,21.35h25.9v136.7h251.96v-136.7h203.96v136.7h253.95v-136.7h31.49c27.12,0,53.19-7.58,73.42-21.35,24.93-16.97,39.22-42.13,39.22-69.04v-90.47h-166.47v-57.37h166.47v-88.86c0-26.91-14.3-52.07-39.22-69.04-20.23-13.77-46.31-21.35-73.42-21.35h-31.49V0h0Z"/>
    </g>
    <g>
      <g>
        <path class="cls-3" d="M112.64,533.56c-19.87,0-38.65-5.34-52.89-15.03-15-10.21-23.27-24.02-23.27-38.88v-236.7c0-14.86,8.26-28.67,23.27-38.88,14.24-9.69,33.02-15.03,52.89-15.03h767.26c19.87,0,38.65,5.34,52.89,15.03,15,10.21,23.27,24.02,23.27,38.88v52.38h-142.43v-16.69H169.53c-4.63,0-7.11,2.19-7.22,2.85v158.02s.03.88,1.5,2.84h643.3l15.02-16.69h133.92v53.99c0,14.86-8.26,28.67-23.27,38.88-14.24,9.69-33.02,15.03-52.89,15.03H112.64Z"/>
        <path d="M879.9,195.52c38.42,0,69.67,21.27,69.67,47.42v45.89h-129.46v-16.69H169.53c-7.56,0-13.7,4.18-13.7,9.33v158.03c0,3.45,2.76,6.94,4.99,9.33h649.18l15.02-16.69h124.55v47.5c0,26.15-31.26,47.42-69.67,47.42H112.64c-38.42,0-69.67-21.27-69.67-47.42v-236.7c0-26.15,31.26-47.42,69.67-47.42h767.26M879.9,182.55H112.64c-21.16,0-41.24,5.74-56.54,16.15-16.59,11.29-26.1,27.42-26.1,44.24v236.7c0,16.82,9.51,32.95,26.1,44.24,15.3,10.42,35.38,16.15,56.54,16.15h767.26c21.16,0,41.24-5.74,56.54-16.15,16.59-11.29,26.1-27.42,26.1-44.24v-60.47h-143.3l-3.86,4.29-11.16,12.4H168.8v-150.71c.22-.02.47-.04.73-.04h637.61v16.69h155.4v-58.86c0-16.82-9.51-32.95-26.1-44.24-15.3-10.42-35.38-16.15-56.54-16.15h0Z"/>
      </g>
      <g>
        <polygon class="cls-4" points="631.46 669.75 631.46 567.53 654.68 567.53 655.21 336.14 566.35 491.49 419.26 491.49 330.4 336.14 330.93 567.53 353.5 567.53 353.5 669.75 175.54 669.75 175.54 567.53 196.53 567.53 196.53 152.68 174.2 152.68 174.2 37 333.22 37 492.8 345.59 652.38 37 811.41 37 811.41 152.68 789.08 152.68 789.08 567.53 811.41 567.53 811.41 669.75 631.46 669.75"/>
        <path d="M804.41,44v101.68h-22.33v428.84h22.33v88.22h-165.95v-88.22h23.2l.61-264.83-99.98,174.8h-138.98l-99.98-174.8.61,264.83h22.55v88.22h-163.96v-88.22h20.99V145.68h-22.33V44h147.77l163.82,316.78h.05L656.65,44h147.77M818.41,30h-170.29l-3.91,7.57-151.4,292.78L341.4,37.57l-3.91-7.57h-170.29v129.68h22.33v400.84h-20.99v116.22h191.96v-116.22h-22.58l-.45-197.94,73.7,128.86,4.03,7.05h155.22l4.03-7.05,73.7-128.86-.45,197.94h-23.23v116.22h193.95v-116.22h-22.33V159.68h22.33V30h0Z"/>
      </g>
      <g class="cls-5">
        <g>
          <path class="cls-3" d="M112.64,533.56c-19.87,0-38.65-5.34-52.89-15.03-15-10.21-23.27-24.02-23.27-38.88v-236.7c0-14.86,8.26-28.67,23.27-38.88,14.24-9.69,33.02-15.03,52.89-15.03h767.26c19.87,0,38.65,5.34,52.89,15.03,15,10.21,23.27,24.02,23.27,38.88v52.38h-142.43v-16.69H169.53c-4.63,0-7.11,2.19-7.22,2.85v158.02s.03.88,1.5,2.84h643.3l15.02-16.69h133.92v53.99c0,14.86-8.26,28.67-23.27,38.88-14.24,9.69-33.02,15.03-52.89,15.03H112.64Z"/>
          <path d="M879.9,195.52c38.42,0,69.67,21.27,69.67,47.42v45.89h-129.46v-16.69H169.53c-7.56,0-13.7,4.18-13.7,9.33v158.03c0,3.45,2.76,6.94,4.99,9.33h649.18l15.02-16.69h124.55v47.5c0,26.15-31.26,47.42-69.67,47.42H112.64c-38.42,0-69.67-21.27-69.67-47.42v-236.7c0-26.15,31.26-47.42,69.67-47.42h767.26M879.9,182.55H112.64c-21.16,0-41.24,5.74-56.54,16.15-16.59,11.29-26.1,27.42-26.1,44.24v236.7c0,16.82,9.51,32.95,26.1,44.24,15.3,10.42,35.38,16.15,56.54,16.15h767.26c21.16,0,41.24-5.74,56.54-16.15,16.59-11.29,26.1-27.42,26.1-44.24v-60.47h-143.3l-3.86,4.29-11.16,12.4H168.8v-150.71c.22-.02.47-.04.73-.04h637.61v16.69h155.4v-58.86c0-16.82-9.51-32.95-26.1-44.24-15.3-10.42-35.38-16.15-56.54-16.15h0Z"/>
        </g>
      </g>
    </g>
  </g>
</svg>